# Blender v2.91.0 OBJ File: ''
# www.blender.org
mtllib fridge_door.mtl
o fridge_door
v 0.552305 21.904034 -6.154056
v 0.552305 22.004034 -6.054055
v 0.552305 0.955459 -6.054059
v 0.552305 1.055459 -6.154059
v -0.913626 1.055459 -6.154059
v -0.913626 0.955459 -6.054059
v -1.013626 1.055459 -6.054059
v -0.913626 22.004034 -6.054055
v -0.913626 21.904034 -6.154056
v -1.013626 21.904034 -6.054056
v -1.013626 1.055459 -5.316159
v -0.913626 0.955459 -5.316159
v -0.913626 1.055459 -5.216159
v -0.913626 21.904032 -5.216156
v -0.913626 22.004032 -5.316155
v -1.013626 21.904032 -5.316155
v 0.552305 22.004032 -5.316155
v 0.552305 21.904032 -5.216156
v 0.552305 1.055459 -5.216159
v 0.552305 0.955459 -5.316159
v -0.543726 1.054537 -6.140512
v -0.543726 0.955459 -6.054059
v -0.543726 22.004034 -6.054055
v -0.543726 21.904955 -6.140509
v -0.543726 22.004032 -5.316155
v -0.543726 21.904955 -5.229702
v -0.543726 1.054537 -5.229705
v -0.543726 0.955459 -5.316159
v 0.552305 21.487251 -6.053849
v 0.552305 21.587252 -6.154057
v 0.552305 1.372246 -6.154058
v 0.552305 1.472246 -6.053850
v -0.914738 1.472248 -5.231027
v -1.013626 1.472248 -5.316157
v -1.013626 21.487249 -5.316156
v -0.914738 21.487249 -5.231026
v -1.013626 1.472248 -6.054058
v -0.914738 1.472248 -6.139188
v -0.914738 21.487251 -6.139187
v -1.013626 21.487251 -6.054057
v 0.552305 21.587250 -5.216156
v 0.552305 21.487249 -5.316364
v 0.552305 1.472246 -5.316365
v 0.552305 1.372246 -5.216158
v -0.543726 21.387249 -5.386814
v -0.443726 21.487249 -5.380575
v -0.642132 21.586117 -5.272656
v -0.543726 1.572246 -5.386815
v -0.642133 1.373377 -5.272659
v -0.443726 1.472246 -5.380576
v -0.543726 1.572248 -5.983400
v -0.443726 1.472248 -5.989639
v -0.642133 1.373380 -6.097558
v -0.543726 21.387251 -5.983399
v -0.642133 21.586119 -6.097556
v -0.443726 21.487251 -5.989638
v 0.124034 22.984224 -6.383744
v 0.124034 22.884224 -6.483744
v 0.024034 22.884224 -6.383744
v 0.900000 22.984224 -6.383744
v 1.000000 22.884224 -6.383744
v 0.900000 22.884224 -6.483744
v 0.900000 22.884220 6.483752
v 1.000000 22.884220 6.383752
v 0.900000 22.984221 6.383752
v 0.124034 22.984221 6.383752
v 0.024034 22.884220 6.383752
v 0.124034 22.884220 6.483752
v 1.000000 0.075270 6.383748
v 0.900000 0.075270 6.483748
v 0.900000 -0.024730 6.383748
v 0.124034 -0.024730 6.383748
v 0.124034 0.075270 6.483748
v 0.024034 0.075270 6.383748
v 0.024034 0.075272 -6.383748
v 0.124034 0.075272 -6.483748
v 0.124034 -0.024728 -6.383748
v 0.900000 -0.024728 -6.383748
v 0.900000 0.075272 -6.483748
v 1.000000 0.075272 -6.383748
vt 0.536341 0.250000
vt 0.519165 0.250000
vt 0.513889 0.250000
vt 0.536305 0.250000
vt 0.541667 0.233846
vt 0.541667 0.248072
vt 0.541667 0.248072
vt 0.541667 0.233846
vt 0.463659 0.231918
vt 0.480835 0.231918
vt 0.486111 0.231918
vt 0.463694 0.231918
vt 0.519264 0.231918
vt 0.536292 0.231918
vt 0.536341 0.231918
vt 0.519216 0.231918
vt 0.463708 0.233846
vt 0.486111 0.233846
vt 0.486111 0.248072
vt 0.463708 0.248072
vt 0.458333 0.248072
vt 0.458333 0.233846
vt 0.458333 0.233846
vt 0.458333 0.248072
vt 0.463708 0.231918
vt 0.480736 0.231918
vt 0.536292 0.250000
vt 0.519264 0.250000
vt 0.458333 0.248072
vt 0.458333 0.233846
vt 0.480736 0.250000
vt 0.463708 0.250000
vt 0.463659 0.250000
vt 0.480784 0.250000
vt 0.513889 0.233850
vt 0.513889 0.234120
vt 0.513889 0.247798
vt 0.513889 0.248068
vt 0.536305 0.231918
vt 0.513889 0.231918
vt 0.514026 0.250000
vt 0.485974 0.250000
vt 0.486111 0.250000
vt 0.463694 0.250000
vt 0.485974 0.231918
vt 0.514026 0.231918
vt 0.513889 0.233846
vt 0.536292 0.233846
vt 0.536292 0.248072
vt 0.513889 0.248072
vt 0.513750 0.234188
vt 0.486250 0.234188
vt 0.486250 0.247730
vt 0.513750 0.247730
vt 0.486111 0.234120
vt 0.486111 0.233850
vt 0.486111 0.248068
vt 0.486111 0.247798
vt 0.541667 0.233846
vt 0.541667 0.248072
vt 0.000000 0.000000
vt 0.000000 0.000000
vt 0.000000 0.000000
vt 0.000000 0.000000
vt 0.000000 0.000000
vt 0.000000 0.000000
vt 0.000000 0.000000
vt 0.000000 0.000000
vt 0.000000 0.000000
vt 0.000000 0.000000
vt 0.000000 0.000000
vt 0.000000 0.000000
vt 0.000000 0.000000
vt 0.000000 0.000000
vt 0.000000 0.000000
vt 0.000000 0.000000
vt 0.000000 0.000000
vt 0.000000 0.000000
vt 0.000000 0.000000
vt 0.000000 0.000000
vt 0.000000 0.000000
vt 0.000000 0.000000
vt 0.000000 0.000000
vt 0.000000 0.000000
vn 0.0993 -0.0913 -0.9909
vn 0.0000 1.0000 0.0000
vn 0.0993 0.0913 0.9909
vn -0.0305 -0.0627 0.9976
vn -1.0000 -0.0000 -0.0000
vn 0.0000 -1.0000 -0.0000
vn -0.0305 0.0627 0.9976
vn -0.0305 -0.0627 -0.9976
vn -0.0305 0.0627 -0.9976
vn 0.0993 -0.0913 0.9909
vn 0.1510 0.0000 -0.9885
vn 0.0993 0.0913 -0.9909
vn 0.1510 -0.0000 0.9885
vn 1.0000 0.0000 0.0000
vn -0.5774 -0.5774 -0.5774
vn -0.5774 0.5774 -0.5773
vn -0.5774 -0.5774 0.5774
vn -0.5774 0.5773 0.5774
vn 0.3024 -0.3575 0.8836
vn 0.3024 0.3575 0.8836
vn 0.3024 0.3576 -0.8836
vn 0.3024 -0.3575 -0.8836
vn 0.0125 -0.6835 -0.7298
vn 0.0125 0.6835 -0.7298
vn -0.7071 -0.7071 -0.0000
vn -0.6813 -0.0121 0.7319
vn -0.0042 0.6836 0.7299
vn -0.0042 -0.6836 0.7299
vn -0.6813 -0.0121 -0.7319
vn -0.7071 0.7071 0.0000
vn -0.0042 -0.6836 -0.7299
vn -0.0042 0.6836 -0.7299
vn 0.0125 0.6835 0.7298
vn 0.0125 -0.6835 0.7298
vn -0.6813 0.0121 0.7319
vn -0.6524 -0.0000 0.7579
vn -0.6813 0.0121 -0.7319
vn -0.6524 0.0000 -0.7579
vn 0.7574 -0.0000 0.6529
vn 0.7574 0.0000 -0.6529
vn -0.0366 -0.7397 -0.6719
vn -0.0366 0.7397 -0.6719
vn -0.0366 0.7397 0.6719
vn -0.0366 -0.7397 0.6719
vn 0.7071 -0.7071 -0.0000
vn 0.7071 0.7071 0.0000
vn 0.0000 0.0000 -1.0000
vn 0.0000 -0.0000 1.0000
vn -0.5774 0.5773 -0.5774
vn 0.5774 0.5773 -0.5774
vn 0.5774 0.5774 0.5773
vn -0.5774 0.5774 0.5773
vn 0.5774 -0.5773 0.5773
vn -0.5774 -0.5773 0.5773
vn 0.5774 -0.5773 -0.5773
vn 0.0000 0.7071 -0.7071
vn 0.0000 0.7071 0.7071
vn -0.7071 -0.0000 0.7071
vn 0.7071 0.0000 -0.7071
vn 0.0000 -0.7071 -0.7071
vn 0.0000 -0.7071 0.7071
vn -0.7071 0.0000 -0.7071
vn 0.7071 -0.0000 0.7071
usemtl fridge_doorHandle
s off
f 24/1/1 55/2/1 39/3/1 9/4/1
f 25/5/2 23/6/2 8/7/2 15/8/2
f 27/9/3 49/10/3 33/11/3 13/12/3
f 41/13/4 18/14/4 26/15/4 47/16/4
f 11/17/5 34/18/5 37/19/5 7/20/5
f 22/21/6 28/22/6 12/23/6 6/24/6
f 19/25/7 44/26/7 49/10/7 27/9/7
f 1/27/8 30/28/8 55/2/8 24/1/8
f 3/29/6 20/30/6 28/22/6 22/21/6
f 31/31/9 4/32/9 21/33/9 53/34/9
f 42/35/6 46/36/6 56/37/6 29/38/6
f 47/16/10 26/15/10 14/39/10 36/40/10
f 55/41/11 53/42/11 38/43/11 39/3/11
f 53/34/12 21/33/12 5/44/12 38/43/12
f 49/45/13 47/46/13 36/40/13 33/11/13
f 35/47/5 16/48/5 10/49/5 40/50/5
f 45/51/14 48/52/14 51/53/14 54/54/14
f 50/55/2 43/56/2 32/57/2 52/58/2
f 34/18/5 35/47/5 40/50/5 37/19/5
f 5/44/15 6/24/15 7/20/15
f 8/7/16 9/4/16 10/49/16
f 11/17/17 12/23/17 13/12/17
f 14/39/18 15/8/18 16/48/18
f 45/51/19 46/36/19 47/46/19
f 48/52/20 49/10/20 50/55/20
f 51/53/21 52/58/21 53/42/21
f 54/54/22 55/2/22 56/37/22
f 22/21/23 6/24/23 5/44/23 21/33/23
f 24/1/24 9/4/24 8/7/24 23/6/24
f 6/24/25 12/23/25 11/17/25 7/20/25
f 36/40/26 14/39/26 16/48/26 35/47/26
f 26/15/27 18/14/27 17/59/27 25/5/27
f 28/22/28 20/30/28 19/25/28 27/9/28
f 40/50/29 10/49/29 9/4/29 39/3/29
f 10/49/30 16/48/30 15/8/30 8/7/30
f 3/29/31 22/21/31 21/33/31 4/32/31
f 1/27/32 24/1/32 23/6/32 2/60/32
f 14/39/33 26/15/33 25/5/33 15/8/33
f 12/23/34 28/22/34 27/9/34 13/12/34
f 13/12/35 33/11/35 34/18/35 11/17/35
f 33/11/36 36/40/36 35/47/36 34/18/36
f 7/20/37 37/19/37 38/43/37 5/44/37
f 37/19/38 40/50/38 39/3/38 38/43/38
f 47/46/39 49/45/39 48/52/39 45/51/39
f 53/42/40 55/41/40 54/54/40 51/53/40
f 29/38/41 56/37/41 55/2/41 30/28/41
f 31/31/42 53/34/42 52/58/42 32/57/42
f 43/56/43 50/55/43 49/10/43 44/26/43
f 41/13/44 47/16/44 46/36/44 42/35/44
f 45/51/45 54/54/45 56/37/45 46/36/45
f 50/55/46 52/58/46 51/53/46 48/52/46
f 17/59/2 2/60/2 23/6/2 25/5/2
usemtl Material
f 75/61/5 74/62/5 67/63/5 59/64/5
f 78/65/6 71/66/6 72/67/6 77/68/6
f 69/69/14 80/70/14 61/71/14 64/72/14
f 62/73/47 79/74/47 76/75/47 58/76/47
f 68/77/48 73/78/48 70/79/48 63/80/48
f 57/81/49 58/76/49 59/64/49
f 60/82/50 61/71/50 62/73/50
f 63/80/51 64/72/51 65/83/51
f 66/84/52 67/63/52 68/77/52
f 69/69/53 70/79/53 71/66/53
f 72/67/54 73/78/54 74/62/54
f 75/61/15 76/75/15 77/68/15
f 78/65/55 79/74/55 80/70/55
f 57/81/56 60/82/56 62/73/56 58/76/56
f 80/70/45 69/69/45 71/66/45 78/65/45
f 74/62/25 75/61/25 77/68/25 72/67/25
f 65/83/57 66/84/57 68/77/57 63/80/57
f 67/63/58 74/62/58 73/78/58 68/77/58
f 61/71/59 80/70/59 79/74/59 62/73/59
f 76/75/60 79/74/60 78/65/60 77/68/60
f 70/79/61 73/78/61 72/67/61 71/66/61
f 58/76/62 76/75/62 75/61/62 59/64/62
f 60/82/46 65/83/46 64/72/46 61/71/46
f 66/84/30 57/81/30 59/64/30 67/63/30
f 63/80/63 70/79/63 69/69/63 64/72/63
f 57/81/2 66/84/2 65/83/2 60/82/2
